<mxfile host="app.diagrams.net" agent="Mozilla/5.0 (Macintosh; Intel Mac OS X 10_15_7) AppleWebKit/537.36 (KHTML, like Gecko) Chrome/134.0.0.0 Safari/537.36" version="27.1.1">
  <diagram name="Page-1" id="NdzH3tt8jKLG8nJWxPWY">
    <mxGraphModel dx="659" dy="422" grid="1" gridSize="10" guides="1" tooltips="1" connect="1" arrows="1" fold="1" page="1" pageScale="1" pageWidth="827" pageHeight="1169" math="0" shadow="0">
      <root>
        <mxCell id="0" />
        <mxCell id="1" parent="0" />
        <mxCell id="cGy38ptjGTHjSZ6XK61e-1" value="Jord- fuktighet" style="shape=crossbar;whiteSpace=wrap;html=1;rounded=1;direction=south;align=left;verticalAlign=middle;labelPosition=right;verticalLabelPosition=middle;fontSize=8;spacing=-6;" vertex="1" parent="1">
          <mxGeometry x="690" y="330" width="20" height="60" as="geometry" />
        </mxCell>
        <mxCell id="cGy38ptjGTHjSZ6XK61e-2" value="Tele" style="shape=crossbar;whiteSpace=wrap;html=1;rounded=1;fontSize=8;verticalAlign=bottom;labelPosition=center;verticalLabelPosition=top;align=center;spacingTop=0;spacing=-10;" vertex="1" parent="1">
          <mxGeometry x="200" y="300" width="120" height="20" as="geometry" />
        </mxCell>
        <mxCell id="cGy38ptjGTHjSZ6XK61e-3" value="TelelÃ¸sning" style="shape=crossbar;whiteSpace=wrap;html=1;rounded=1;fontSize=8;verticalAlign=bottom;labelPosition=center;verticalLabelPosition=top;align=center;spacingTop=0;spacing=-10;" vertex="1" parent="1">
          <mxGeometry x="320" y="300" width="50" height="20" as="geometry" />
        </mxCell>
        <mxCell id="cGy38ptjGTHjSZ6XK61e-4" value="" style="shape=crossbar;whiteSpace=wrap;html=1;rounded=1;fontSize=8;verticalAlign=bottom;labelPosition=center;verticalLabelPosition=top;align=center;spacingTop=0;spacing=-10;" vertex="1" parent="1">
          <mxGeometry x="370" y="300" width="20" height="20" as="geometry" />
        </mxCell>
        <mxCell id="cGy38ptjGTHjSZ6XK61e-5" value="Barmark" style="shape=crossbar;whiteSpace=wrap;html=1;rounded=1;fontSize=8;verticalAlign=bottom;labelPosition=center;verticalLabelPosition=top;align=center;spacingTop=0;spacing=-10;" vertex="1" parent="1">
          <mxGeometry x="390" y="300" width="170" height="20" as="geometry" />
        </mxCell>
        <mxCell id="cGy38ptjGTHjSZ6XK61e-6" value="" style="shape=crossbar;whiteSpace=wrap;html=1;rounded=1;fontSize=8;verticalAlign=bottom;labelPosition=center;verticalLabelPosition=top;align=center;spacingTop=0;spacing=-10;" vertex="1" parent="1">
          <mxGeometry x="560" y="300" width="20" height="20" as="geometry" />
        </mxCell>
        <mxCell id="cGy38ptjGTHjSZ6XK61e-7" value="Regn" style="shape=crossbar;whiteSpace=wrap;html=1;rounded=1;fontSize=8;verticalAlign=bottom;labelPosition=center;verticalLabelPosition=top;align=center;spacingTop=0;spacing=-10;" vertex="1" parent="1">
          <mxGeometry x="580" y="300" width="60" height="20" as="geometry" />
        </mxCell>
        <mxCell id="cGy38ptjGTHjSZ6XK61e-8" value="Tele" style="shape=crossbar;whiteSpace=wrap;html=1;rounded=1;fontSize=8;verticalAlign=bottom;labelPosition=center;verticalLabelPosition=top;align=center;spacingTop=0;spacing=-10;" vertex="1" parent="1">
          <mxGeometry x="640" y="300" width="40" height="20" as="geometry" />
        </mxCell>
        <mxCell id="cGy38ptjGTHjSZ6XK61e-9" value="" style="group" vertex="1" connectable="0" parent="1">
          <mxGeometry x="200" y="400" width="480" height="27" as="geometry" />
        </mxCell>
        <mxCell id="cGy38ptjGTHjSZ6XK61e-10" value="" style="shape=crossbar;whiteSpace=wrap;html=1;rounded=1;treeFolding=0;" vertex="1" parent="cGy38ptjGTHjSZ6XK61e-9">
          <mxGeometry width="479.99999999999983" height="20" as="geometry" />
        </mxCell>
        <mxCell id="cGy38ptjGTHjSZ6XK61e-11" value="" style="endArrow=none;html=1;rounded=0;" edge="1" parent="cGy38ptjGTHjSZ6XK61e-9">
          <mxGeometry width="50" height="50" relative="1" as="geometry">
            <mxPoint x="39.99999999999999" y="19.999999999999886" as="sourcePoint" />
            <mxPoint x="39.99999999999999" as="targetPoint" />
          </mxGeometry>
        </mxCell>
        <mxCell id="cGy38ptjGTHjSZ6XK61e-12" value="" style="endArrow=none;html=1;rounded=0;" edge="1" parent="cGy38ptjGTHjSZ6XK61e-9">
          <mxGeometry width="50" height="50" relative="1" as="geometry">
            <mxPoint x="79.99999999999999" y="19.999999999999886" as="sourcePoint" />
            <mxPoint x="79.99999999999999" as="targetPoint" />
          </mxGeometry>
        </mxCell>
        <mxCell id="cGy38ptjGTHjSZ6XK61e-13" value="" style="endArrow=none;html=1;rounded=0;" edge="1" parent="cGy38ptjGTHjSZ6XK61e-9">
          <mxGeometry width="50" height="50" relative="1" as="geometry">
            <mxPoint x="120" y="19.999999999999886" as="sourcePoint" />
            <mxPoint x="120" as="targetPoint" />
          </mxGeometry>
        </mxCell>
        <mxCell id="cGy38ptjGTHjSZ6XK61e-14" value="" style="endArrow=none;html=1;rounded=0;" edge="1" parent="cGy38ptjGTHjSZ6XK61e-9">
          <mxGeometry width="50" height="50" relative="1" as="geometry">
            <mxPoint x="159.99999999999997" y="19.999999999999886" as="sourcePoint" />
            <mxPoint x="159.99999999999997" as="targetPoint" />
          </mxGeometry>
        </mxCell>
        <mxCell id="cGy38ptjGTHjSZ6XK61e-15" value="" style="endArrow=none;html=1;rounded=0;" edge="1" parent="cGy38ptjGTHjSZ6XK61e-9">
          <mxGeometry width="50" height="50" relative="1" as="geometry">
            <mxPoint x="200.00000000000003" y="19.999999999999886" as="sourcePoint" />
            <mxPoint x="200.00000000000003" as="targetPoint" />
          </mxGeometry>
        </mxCell>
        <mxCell id="cGy38ptjGTHjSZ6XK61e-16" value="" style="endArrow=none;html=1;rounded=0;" edge="1" parent="cGy38ptjGTHjSZ6XK61e-9">
          <mxGeometry width="50" height="50" relative="1" as="geometry">
            <mxPoint x="239.74" y="19.999999999999886" as="sourcePoint" />
            <mxPoint x="239.74" as="targetPoint" />
          </mxGeometry>
        </mxCell>
        <mxCell id="cGy38ptjGTHjSZ6XK61e-17" value="" style="endArrow=none;html=1;rounded=0;" edge="1" parent="cGy38ptjGTHjSZ6XK61e-9">
          <mxGeometry width="50" height="50" relative="1" as="geometry">
            <mxPoint x="280.00000000000006" y="19.999999999999886" as="sourcePoint" />
            <mxPoint x="280.00000000000006" as="targetPoint" />
          </mxGeometry>
        </mxCell>
        <mxCell id="cGy38ptjGTHjSZ6XK61e-18" value="" style="endArrow=none;html=1;rounded=0;" edge="1" parent="cGy38ptjGTHjSZ6XK61e-9">
          <mxGeometry width="50" height="50" relative="1" as="geometry">
            <mxPoint x="319.99999999999994" y="19.999999999999886" as="sourcePoint" />
            <mxPoint x="319.99999999999994" as="targetPoint" />
          </mxGeometry>
        </mxCell>
        <mxCell id="cGy38ptjGTHjSZ6XK61e-19" value="" style="endArrow=none;html=1;rounded=0;" edge="1" parent="cGy38ptjGTHjSZ6XK61e-9">
          <mxGeometry width="50" height="50" relative="1" as="geometry">
            <mxPoint x="360.00000000000006" y="19.999999999999886" as="sourcePoint" />
            <mxPoint x="360.00000000000006" as="targetPoint" />
          </mxGeometry>
        </mxCell>
        <mxCell id="cGy38ptjGTHjSZ6XK61e-20" value="" style="endArrow=none;html=1;rounded=0;" edge="1" parent="cGy38ptjGTHjSZ6XK61e-9">
          <mxGeometry width="50" height="50" relative="1" as="geometry">
            <mxPoint x="400.00000000000006" y="19.999999999999886" as="sourcePoint" />
            <mxPoint x="400.00000000000006" as="targetPoint" />
          </mxGeometry>
        </mxCell>
        <mxCell id="cGy38ptjGTHjSZ6XK61e-21" value="" style="endArrow=none;html=1;rounded=0;" edge="1" parent="cGy38ptjGTHjSZ6XK61e-9">
          <mxGeometry width="50" height="50" relative="1" as="geometry">
            <mxPoint x="439.99999999999994" y="19.999999999999886" as="sourcePoint" />
            <mxPoint x="439.99999999999994" as="targetPoint" />
          </mxGeometry>
        </mxCell>
        <mxCell id="cGy38ptjGTHjSZ6XK61e-22" value="Apr" style="text;html=1;align=center;verticalAlign=bottom;whiteSpace=wrap;rounded=0;fontSize=8;spacing=6;" vertex="1" parent="cGy38ptjGTHjSZ6XK61e-9">
          <mxGeometry x="120" y="20" width="40" height="7" as="geometry" />
        </mxCell>
        <mxCell id="cGy38ptjGTHjSZ6XK61e-23" value="Mai" style="text;html=1;align=center;verticalAlign=bottom;whiteSpace=wrap;rounded=0;fontSize=8;spacing=6;" vertex="1" parent="cGy38ptjGTHjSZ6XK61e-9">
          <mxGeometry x="160" y="20" width="40" height="7" as="geometry" />
        </mxCell>
        <mxCell id="cGy38ptjGTHjSZ6XK61e-24" value="Jun" style="text;html=1;align=center;verticalAlign=bottom;whiteSpace=wrap;rounded=0;fontSize=8;spacing=6;" vertex="1" parent="cGy38ptjGTHjSZ6XK61e-9">
          <mxGeometry x="200" y="20" width="40" height="7" as="geometry" />
        </mxCell>
        <mxCell id="cGy38ptjGTHjSZ6XK61e-25" value="Jul" style="text;html=1;align=center;verticalAlign=bottom;whiteSpace=wrap;rounded=0;fontSize=8;spacing=6;" vertex="1" parent="cGy38ptjGTHjSZ6XK61e-9">
          <mxGeometry x="240" y="20" width="40" height="7" as="geometry" />
        </mxCell>
        <mxCell id="cGy38ptjGTHjSZ6XK61e-26" value="Aug" style="text;html=1;align=center;verticalAlign=bottom;whiteSpace=wrap;rounded=0;fontSize=8;spacing=6;" vertex="1" parent="cGy38ptjGTHjSZ6XK61e-9">
          <mxGeometry x="280" y="20" width="40" height="7" as="geometry" />
        </mxCell>
        <mxCell id="cGy38ptjGTHjSZ6XK61e-27" value="Sep" style="text;html=1;align=center;verticalAlign=bottom;whiteSpace=wrap;rounded=0;fontSize=8;spacing=6;" vertex="1" parent="cGy38ptjGTHjSZ6XK61e-9">
          <mxGeometry x="320" y="20" width="40" height="7" as="geometry" />
        </mxCell>
        <mxCell id="cGy38ptjGTHjSZ6XK61e-28" value="Okt" style="text;html=1;align=center;verticalAlign=bottom;whiteSpace=wrap;rounded=0;fontSize=8;spacing=6;" vertex="1" parent="cGy38ptjGTHjSZ6XK61e-9">
          <mxGeometry x="360" y="20" width="40" height="7" as="geometry" />
        </mxCell>
        <mxCell id="cGy38ptjGTHjSZ6XK61e-29" value="Nov" style="text;html=1;align=center;verticalAlign=bottom;whiteSpace=wrap;rounded=0;fontSize=8;spacing=6;" vertex="1" parent="cGy38ptjGTHjSZ6XK61e-9">
          <mxGeometry x="400" y="20" width="40" height="7" as="geometry" />
        </mxCell>
        <mxCell id="cGy38ptjGTHjSZ6XK61e-30" value="Des" style="text;html=1;align=center;verticalAlign=bottom;whiteSpace=wrap;rounded=0;fontSize=8;spacing=6;" vertex="1" parent="cGy38ptjGTHjSZ6XK61e-9">
          <mxGeometry x="440" y="20" width="40" height="7" as="geometry" />
        </mxCell>
        <mxCell id="cGy38ptjGTHjSZ6XK61e-31" value="Mar" style="text;html=1;align=center;verticalAlign=bottom;whiteSpace=wrap;rounded=0;fontSize=8;spacing=6;" vertex="1" parent="cGy38ptjGTHjSZ6XK61e-9">
          <mxGeometry x="80" y="20" width="40" height="7" as="geometry" />
        </mxCell>
        <mxCell id="cGy38ptjGTHjSZ6XK61e-32" value="Feb" style="text;html=1;align=center;verticalAlign=bottom;whiteSpace=wrap;rounded=0;fontSize=8;spacing=6;" vertex="1" parent="cGy38ptjGTHjSZ6XK61e-9">
          <mxGeometry x="40" y="20" width="40" height="7" as="geometry" />
        </mxCell>
        <mxCell id="cGy38ptjGTHjSZ6XK61e-33" value="Jan" style="text;html=1;align=center;verticalAlign=bottom;whiteSpace=wrap;rounded=0;fontSize=8;spacing=6;" vertex="1" parent="cGy38ptjGTHjSZ6XK61e-9">
          <mxGeometry y="20" width="40" height="7" as="geometry" />
        </mxCell>
        <mxCell id="cGy38ptjGTHjSZ6XK61e-34" value="" style="shape=partialRectangle;whiteSpace=wrap;html=1;top=0;bottom=0;fillColor=#dae8fc;strokeColor=default;" vertex="1" parent="1">
          <mxGeometry x="200" y="330" width="480" height="60" as="geometry" />
        </mxCell>
        <mxCell id="cGy38ptjGTHjSZ6XK61e-35" value="" style="shape=partialRectangle;whiteSpace=wrap;html=1;top=0;bottom=0;fillColor=#d5e8d4;strokeColor=light-dark(#000000, #446e2c);" vertex="1" parent="1">
          <mxGeometry x="320" y="330" width="320" height="60" as="geometry" />
        </mxCell>
        <mxCell id="cGy38ptjGTHjSZ6XK61e-36" value="" style="shape=partialRectangle;whiteSpace=wrap;html=1;top=0;bottom=0;fillColor=#f8cecc;strokeColor=light-dark(#000000, #d7817e);" vertex="1" parent="1">
          <mxGeometry x="320" y="330" width="50" height="60" as="geometry" />
        </mxCell>
        <mxCell id="cGy38ptjGTHjSZ6XK61e-37" value="" style="shape=partialRectangle;whiteSpace=wrap;html=1;top=0;bottom=0;fillColor=#fff2cc;strokeColor=light-dark(#000000, #6d5100);" vertex="1" parent="1">
          <mxGeometry x="370" y="330" width="20" height="60" as="geometry" />
        </mxCell>
        <mxCell id="cGy38ptjGTHjSZ6XK61e-38" value="" style="shape=partialRectangle;whiteSpace=wrap;html=1;top=0;bottom=0;fillColor=#f8cecc;strokeColor=light-dark(#000000, #d7817e);" vertex="1" parent="1">
          <mxGeometry x="580" y="330" width="60" height="60" as="geometry" />
        </mxCell>
        <mxCell id="cGy38ptjGTHjSZ6XK61e-39" value="" style="shape=partialRectangle;whiteSpace=wrap;html=1;top=0;bottom=0;fillColor=#fff2cc;strokeColor=#000000;" vertex="1" parent="1">
          <mxGeometry x="560" y="330" width="20" height="60" as="geometry" />
        </mxCell>
        <mxCell id="cGy38ptjGTHjSZ6XK61e-40" value="" style="curved=1;endArrow=none;html=1;rounded=0;exitX=0;exitY=0.5;exitDx=0;exitDy=0;startFill=0;entryX=0.99;entryY=0.079;entryDx=0;entryDy=0;entryPerimeter=0;" edge="1" parent="1" source="cGy38ptjGTHjSZ6XK61e-36" target="cGy38ptjGTHjSZ6XK61e-38">
          <mxGeometry width="50" height="50" relative="1" as="geometry">
            <mxPoint x="380" y="400" as="sourcePoint" />
            <mxPoint x="430" y="350" as="targetPoint" />
            <Array as="points">
              <mxPoint x="340" y="320" />
              <mxPoint x="370" y="360" />
              <mxPoint x="390" y="370" />
              <mxPoint x="470" y="380" />
              <mxPoint x="530" y="380" />
              <mxPoint x="570" y="360" />
              <mxPoint x="620" y="330" />
            </Array>
          </mxGeometry>
        </mxCell>
        <mxCell id="cGy38ptjGTHjSZ6XK61e-41" value="&lt;font&gt;Tele&lt;/font&gt;" style="rounded=0;whiteSpace=wrap;html=1;fillColor=#dae8fc;strokeColor=#6c8ebf;fontSize=8;" vertex="1" parent="1">
          <mxGeometry x="200" y="450" width="120" height="25" as="geometry" />
        </mxCell>
        <mxCell id="cGy38ptjGTHjSZ6XK61e-42" value="&lt;font&gt;Bra bÃ¦reevne&lt;/font&gt;" style="rounded=0;whiteSpace=wrap;html=1;fillColor=#d5e8d4;strokeColor=#82b366;fontSize=8;" vertex="1" parent="1">
          <mxGeometry x="320" y="450" width="120" height="25" as="geometry" />
        </mxCell>
        <mxCell id="cGy38ptjGTHjSZ6XK61e-43" value="&lt;font&gt;Middels bÃ¦reevne&lt;/font&gt;" style="rounded=0;whiteSpace=wrap;html=1;fillColor=#fff2cc;strokeColor=#d6b656;fontSize=8;" vertex="1" parent="1">
          <mxGeometry x="440" y="450" width="120" height="25" as="geometry" />
        </mxCell>
        <mxCell id="cGy38ptjGTHjSZ6XK61e-44" value="&lt;font&gt;DÃ¥rlig bÃ¦reevne&lt;/font&gt;" style="rounded=0;whiteSpace=wrap;html=1;fillColor=#f8cecc;strokeColor=#b85450;fontSize=8;" vertex="1" parent="1">
          <mxGeometry x="560" y="450" width="120" height="25" as="geometry" />
        </mxCell>
      </root>
    </mxGraphModel>
  </diagram>
</mxfile>
